<svg id="visual" viewBox="0 0 960 540" width="960" height="540" xmlns="http://www.w3.org/2000/svg" xmlns:xlink="http://www.w3.org/1999/xlink" version="1.1"><path d="M0 114L14.5 111.3C29 108.7 58 103.3 87.2 100.7C116.3 98 145.7 98 174.8 93.5C204 89 233 80 262 72C291 64 320 57 349 65.2C378 73.3 407 96.7 436.2 100.2C465.3 103.7 494.7 87.3 523.8 80.2C553 73 582 75 611 85.8C640 96.7 669 116.3 698 122.5C727 128.7 756 121.3 785.2 122.2C814.3 123 843.7 132 872.8 133C902 134 931 127 945.5 123.5L960 120L960 0L945.5 0C931 0 902 0 872.8 0C843.7 0 814.3 0 785.2 0C756 0 727 0 698 0C669 0 640 0 611 0C582 0 553 0 523.8 0C494.7 0 465.3 0 436.2 0C407 0 378 0 349 0C320 0 291 0 262 0C233 0 204 0 174.8 0C145.7 0 116.3 0 87.2 0C58 0 29 0 14.5 0L0 0Z" fill="#1a5f7a"></path><path d="M0 298L14.5 292.7C29 287.3 58 276.7 87.2 285.7C116.3 294.7 145.7 323.3 174.8 310.7C204 298 233 244 262 220.7C291 197.3 320 204.7 349 212.8C378 221 407 230 436.2 222.7C465.3 215.3 494.7 191.7 523.8 184.3C553 177 582 186 611 198.7C640 211.3 669 227.7 698 232.2C727 236.7 756 229.3 785.2 245.5C814.3 261.7 843.7 301.3 872.8 318.5C902 335.7 931 330.3 945.5 327.7L960 325L960 118L945.5 121.5C931 125 902 132 872.8 131C843.7 130 814.3 121 785.2 120.2C756 119.3 727 126.7 698 120.5C669 114.3 640 94.7 611 83.8C582 73 553 71 523.8 78.2C494.7 85.3 465.3 101.7 436.2 98.2C407 94.7 378 71.3 349 63.2C320 55 291 62 262 70C233 78 204 87 174.8 91.5C145.7 96 116.3 96 87.2 98.7C58 101.3 29 106.7 14.5 109.3L0 112Z" fill="#217992"></path><path d="M0 401L14.5 394.7C29 388.3 58 375.7 87.2 379.2C116.3 382.7 145.7 402.3 174.8 379.8C204 357.3 233 292.7 262 275.7C291 258.7 320 289.3 349 301.8C378 314.3 407 308.7 436.2 300.5C465.3 292.3 494.7 281.7 523.8 270C553 258.3 582 245.7 611 256.5C640 267.3 669 301.7 698 310.7C727 319.7 756 303.3 785.2 316.8C814.3 330.3 843.7 373.7 872.8 393.5C902 413.3 931 409.7 945.5 407.8L960 406L960 323L945.5 325.7C931 328.3 902 333.7 872.8 316.5C843.7 299.3 814.3 259.7 785.2 243.5C756 227.3 727 234.7 698 230.2C669 225.7 640 209.3 611 196.7C582 184 553 175 523.8 182.3C494.7 189.7 465.3 213.3 436.2 220.7C407 228 378 219 349 210.8C320 202.7 291 195.3 262 218.7C233 242 204 296 174.8 308.7C145.7 321.3 116.3 292.7 87.2 283.7C58 274.7 29 285.3 14.5 290.7L0 296Z" fill="#2b93a8"></path><path d="M0 503L14.5 500.3C29 497.7 58 492.3 87.2 492.3C116.3 492.3 145.7 497.7 174.8 492.3C204 487 233 471 262 472C291 473 320 491 349 493.7C378 496.3 407 483.7 436.2 473.7C465.3 463.7 494.7 456.3 523.8 457.2C553 458 582 467 611 476C640 485 669 494 698 494C727 494 756 485 785.2 483.2C814.3 481.3 843.7 486.7 872.8 485.8C902 485 931 478 945.5 474.5L960 471L960 404L945.5 405.8C931 407.7 902 411.3 872.8 391.5C843.7 371.7 814.3 328.3 785.2 314.8C756 301.3 727 317.7 698 308.7C669 299.7 640 265.3 611 254.5C582 243.7 553 256.3 523.8 268C494.7 279.7 465.3 290.3 436.2 298.5C407 306.7 378 312.3 349 299.8C320 287.3 291 256.7 262 273.7C233 290.7 204 355.3 174.8 377.8C145.7 400.3 116.3 380.7 87.2 377.2C58 373.7 29 386.3 14.5 392.7L0 399Z" fill="#3bafbc"></path><path d="M0 541L14.5 541C29 541 58 541 87.2 541C116.3 541 145.7 541 174.8 541C204 541 233 541 262 541C291 541 320 541 349 541C378 541 407 541 436.2 541C465.3 541 494.7 541 523.8 541C553 541 582 541 611 541C640 541 669 541 698 541C727 541 756 541 785.2 541C814.3 541 843.7 541 872.8 541C902 541 931 541 945.5 541L960 541L960 469L945.5 472.5C931 476 902 483 872.8 483.8C843.7 484.7 814.3 479.3 785.2 481.2C756 483 727 492 698 492C669 492 640 483 611 474C582 465 553 456 523.8 455.2C494.7 454.3 465.3 461.7 436.2 471.7C407 481.7 378 494.3 349 491.7C320 489 291 471 262 470C233 469 204 485 174.8 490.3C145.7 495.7 116.3 490.3 87.2 490.3C58 490.3 29 495.7 14.5 498.3L0 501Z" fill="#51cbce"></path></svg>